<!--?xml version="1.0" encoding="utf-8"?-->
<!-- Generator: Adobe Illustrator 18.1.1, SVG Export Plug-In . SVG Version: 6.00 Build 0)  -->

<svg version="1.1" id="_x32_" xmlns="http://www.w3.org/2000/svg" xmlns:xlink="http://www.w3.org/1999/xlink" x="0px" y="0px" viewBox="0 0 512 512" style="width: 256px; height: 256px; opacity: 1;" xml:space="preserve">
<style type="text/css">
	.st0{fill:#4B4B4B;}
</style>
<g>
	<path class="st0" d="M255.991,0.005C114.624,0.005,0,114.619,0,255.996c0,141.385,114.624,256,255.991,256
		c141.386,0,256.009-114.614,256.009-256C512,114.619,397.377,0.005,255.991,0.005z M339.965,278.891c-0.19,0-0.37-0.01-0.572-0.01
		c8.191,22.297,17.115,51.536,17.115,94.156H155.492c0-42.62,8.924-71.859,17.115-94.156c-0.19,0-0.381,0.01-0.572,0.01
		c-30.925,0-55.982-25.058-55.982-55.983c0-30.906,25.058-55.964,55.982-55.964c8.905,0,17.325,2.076,24.801,5.791
		c11.962-20.22,33.973-33.782,59.173-33.782c25.183,0,47.192,13.562,59.155,33.782c7.476-3.715,15.896-5.791,24.8-5.791
		c30.925,0,55.984,25.058,55.984,55.964C395.948,253.834,370.89,278.891,339.965,278.891z" style="fill: rgb(235, 155, 51);"></path>
</g>
</svg>
